<?xml version="1.0" standalone="no"?>
<!DOCTYPE svg PUBLIC "-//W3C//DTD SVG 20010904//EN"
 "http://www.w3.org/TR/2001/REC-SVG-20010904/DTD/svg10.dtd">
<svg version="1.0" xmlns="http://www.w3.org/2000/svg"
 width="1024.000000pt" height="1024.000000pt" viewBox="0 0 1024.000000 1024.000000"
 preserveAspectRatio="xMidYMid meet">
<metadata>
Created by potrace 1.11, written by Peter Selinger 2001-2013
</metadata>
<g transform="translate(0.000000,1024.000000) scale(0.100000,-0.100000)"
fill="#000000" stroke="none">
<path d="M9178 9779 c-63 -83 -104 -172 -206 -454 -22 -60 -43 -117 -47 -127
-6 -14 -1 -16 34 -11 23 3 41 2 41 -3 -1 -5 -23 -39 -50 -76 -35 -47 -110
-118 -247 -233 -109 -92 -208 -176 -221 -186 -255 -215 -550 -415 -777 -526
-129 -63 -198 -99 -211 -111 -6 -6 -31 -20 -54 -32 -148 -75 -390 -230 -555
-355 -79 -60 -134 -97 -310 -209 -59 -38 -123 -92 -186 -157 -104 -107 -139
-124 -139 -70 0 32 -20 45 -75 47 -89 3 -135 8 -135 16 0 4 -5 8 -11 8 -20 0
-140 95 -124 98 8 2 15 10 15 19 0 14 -3 14 -22 1 -24 -16 -41 -11 -81 24 -23
19 -16 54 13 63 11 4 17 12 13 21 -8 20 -30 17 -46 -7 -13 -18 -19 -19 -55
-10 -46 13 -65 31 -56 55 4 10 18 16 41 16 29 0 34 -3 29 -17 -6 -15 -4 -15
13 1 17 15 24 16 35 7 17 -14 36 -7 36 13 0 8 -17 16 -39 20 -45 7 -76 42 -79
89 -3 38 -9 47 -35 47 -12 0 -29 4 -37 10 -9 6 -19 5 -28 -2 -15 -13 -32 4
-32 35 0 9 -7 17 -15 17 -8 0 -15 9 -15 20 0 14 -7 20 -22 20 -12 0 -18 3 -15
7 4 3 -3 11 -16 17 -15 8 -23 22 -25 44 -2 19 -11 38 -23 45 -10 6 -19 22 -19
34 0 31 -10 53 -25 53 -8 0 -17 9 -20 20 -5 16 -15 20 -56 20 -53 0 -70 -10
-114 -71 -25 -34 -26 -45 -2 -101 13 -30 19 -33 45 -19 11 6 21 4 30 -5 7 -8
8 -14 2 -14 -5 0 -10 -4 -10 -10 0 -5 7 -10 15 -10 9 0 18 -6 21 -14 3 -8 12
-12 20 -9 10 4 14 -3 14 -21 0 -17 5 -26 16 -26 11 0 14 -5 10 -16 -3 -9 -6
-18 -6 -20 0 -2 -7 -4 -15 -4 -8 0 -15 -4 -15 -10 0 -5 -12 -10 -26 -10 -20 0
-25 -4 -20 -16 3 -8 2 -12 -4 -9 -19 12 -10 35 13 35 28 0 82 39 55 40 -10 0
-18 7 -18 15 0 17 -29 49 -53 58 -9 3 -17 13 -17 22 0 17 -16 20 -25 5 -3 -5
-17 -10 -31 -10 -20 0 -23 3 -16 16 6 11 4 26 -5 45 -16 31 -14 104 2 104 13
0 55 42 55 55 0 13 65 24 97 15 40 -9 93 -64 93 -95 0 -18 9 -31 32 -45 18
-10 27 -20 20 -23 -18 -6 -15 -22 4 -22 13 0 14 -3 4 -15 -10 -12 -7 -15 14
-21 15 -3 23 -11 19 -17 -4 -7 0 -8 11 -4 10 4 22 7 26 7 10 0 -9 58 -35 111
-9 19 -85 102 -169 184 -144 142 -155 155 -200 247 -26 54 -51 100 -55 103
-13 7 -49 -95 -66 -185 -16 -86 -53 -195 -63 -186 -7 7 -58 -104 -77 -165 -8
-29 -19 -57 -24 -63 -5 -6 -21 -79 -35 -160 -44 -251 -32 -431 35 -556 43 -82
46 -71 3 15 -18 39 -36 90 -39 115 l-6 45 16 -30 c8 -16 24 -55 35 -87 12 -31
35 -73 51 -95 l31 -38 -49 -8 c-26 -4 -76 -14 -111 -23 -56 -14 -68 -14 -124
1 -34 8 -107 25 -162 36 -56 12 -105 25 -111 30 -14 14 9 11 110 -12 181 -42
220 -48 256 -38 l34 8 -34 -3 c-33 -3 -158 22 -398 78 -61 14 -118 26 -125 25
-21 -1 53 -26 101 -34 28 -5 39 -10 31 -15 -7 -5 -20 -4 -29 1 -31 17 -265 49
-359 49 -52 0 -139 -7 -194 -16 -55 -9 -102 -13 -106 -10 -3 3 3 6 14 6 10 0
37 7 59 15 l40 15 -50 -6 c-27 -3 -107 -17 -177 -30 -70 -13 -171 -30 -225
-39 -54 -8 -137 -23 -185 -32 -85 -17 -88 -18 -88 -45 0 -15 -4 -29 -9 -33
-11 -6 -155 -38 -271 -60 -87 -16 -350 -55 -565 -84 -82 -11 -211 -36 -285
-54 -74 -19 -180 -40 -235 -47 -55 -6 -136 -17 -180 -23 -76 -11 -80 -13 -83
-39 -4 -35 -13 -35 -87 3 -48 24 -67 29 -97 24 l-37 -7 16 -34 c18 -37 36 -46
193 -92 52 -16 94 -32 93 -38 -1 -5 -55 -27 -120 -50 l-118 -40 -3 -42 c-2
-23 1 -42 5 -42 5 0 7 17 5 39 -4 38 -4 38 43 50 59 15 70 9 15 -8 -28 -8 -40
-17 -40 -30 0 -28 16 -36 130 -61 58 -12 110 -26 115 -30 6 -5 27 -11 48 -15
21 -4 36 -10 33 -12 -2 -3 -30 1 -61 7 -87 18 -77 4 12 -16 43 -10 79 -19 81
-20 2 -1 -17 -22 -41 -47 -54 -53 -81 -93 -73 -106 4 -5 34 -28 69 -51 l62
-42 76 7 c41 3 86 2 100 -3 14 -6 55 -36 92 -67 81 -69 108 -75 246 -51 l94
17 38 -40 c23 -24 61 -48 96 -61 52 -20 70 -22 170 -17 106 6 115 5 200 -25
77 -28 104 -32 220 -36 86 -3 174 1 255 12 245 31 282 33 348 22 70 -13 140
-10 157 6 15 16 44 163 36 184 -3 8 -1 14 4 14 6 0 13 -34 16 -75 7 -89 33
-151 84 -195 41 -36 58 -36 86 3 18 23 22 46 25 147 3 66 8 120 12 120 4 0 13
-28 20 -62 13 -65 30 -123 56 -196 14 -36 24 -47 74 -72 l57 -29 23 50 c23 49
23 50 8 131 -9 46 -14 87 -11 92 3 4 17 -18 32 -51 49 -111 95 -184 139 -224
66 -57 111 -53 127 14 4 15 11 27 15 27 5 0 25 -21 46 -46 21 -25 50 -52 65
-60 54 -27 122 -13 138 28 7 19 9 19 39 -12 18 -17 32 -35 32 -39 0 -5 -35
-35 -77 -67 -43 -33 -108 -87 -145 -121 -37 -35 -74 -63 -83 -63 -8 0 -15 -5
-15 -11 0 -7 -13 -9 -37 -5 -29 5 -34 4 -23 -4 11 -8 4 -10 -29 -4 -33 5 -42
3 -36 -6 6 -9 0 -10 -24 -5 -20 4 -31 3 -31 -5 0 -6 -5 -8 -10 -5 -6 4 -41 2
-78 -4 -145 -24 -285 -41 -467 -57 -233 -20 -588 -15 -735 11 -52 9 -111 18
-130 20 -50 5 -213 51 -284 81 -225 95 -384 97 -561 8 -78 -39 -214 -162 -282
-255 -88 -120 -184 -355 -199 -490 -11 -100 40 -167 118 -156 52 7 81 36 148
147 30 50 73 110 95 133 22 23 61 65 86 93 144 164 338 248 594 260 143 7 224
-8 465 -87 196 -65 205 -68 194 -78 -22 -21 -344 -111 -395 -111 -34 0 -79
-36 -79 -63 0 -37 55 -140 96 -180 64 -62 118 -76 303 -79 88 -2 162 -6 166
-10 4 -4 -3 -21 -15 -38 -32 -45 -35 -95 -11 -177 26 -87 48 -116 114 -150 49
-24 57 -25 158 -19 l106 6 5 -69 c6 -80 28 -125 79 -160 31 -21 41 -23 116
-18 65 5 86 3 97 -9 8 -8 13 -21 9 -29 -11 -31 8 -64 52 -91 38 -22 55 -25
106 -23 l62 4 13 -46 c17 -56 39 -68 145 -77 l73 -7 12 -71 c14 -86 33 -125
80 -161 19 -15 44 -42 55 -60 25 -39 27 -29 -81 -313 -76 -199 -117 -320 -220
-650 -22 -69 -59 -188 -84 -265 -57 -181 -85 -284 -146 -534 -27 -112 -56
-211 -64 -220 -12 -13 -13 -20 -5 -28 9 -9 9 -23 0 -57 -6 -24 -9 -51 -7 -58
2 -7 7 -26 11 -42 l6 -29 22 24 c22 25 47 59 92 125 14 20 25 31 25 25 0 -14
-48 -103 -60 -111 -20 -13 -71 -124 -94 -205 -34 -120 -66 -271 -66 -312 0
-19 -7 -50 -16 -71 -30 -73 -62 -393 -50 -496 l7 -56 151 0 150 0 -6 28 c-4
15 -2 50 4 77 12 53 15 74 49 302 11 78 28 158 38 177 16 35 16 36 -7 61 -22
23 -23 29 -13 73 20 89 83 317 98 352 8 19 26 81 40 137 14 56 30 114 36 130
6 15 19 73 30 128 11 55 31 137 45 181 l26 81 49 -18 c100 -38 160 -18 217 74
42 68 63 122 164 422 39 116 74 219 79 230 4 11 18 54 29 95 12 41 30 104 40
140 42 150 111 442 126 540 9 58 20 110 25 116 13 17 138 595 184 854 14 80
32 165 40 190 7 25 16 107 18 183 5 117 9 144 28 180 12 23 44 86 70 140 67
135 348 556 415 622 30 29 85 69 122 88 37 19 81 41 97 50 17 9 86 43 155 76
119 57 258 151 334 225 17 17 68 64 113 104 44 40 98 99 119 132 24 36 54 68
77 80 28 16 44 36 61 74 26 59 79 99 178 136 58 22 96 56 143 131 14 21 44 52
68 69 62 44 78 60 99 109 22 49 28 160 14 267 -8 56 -6 66 18 111 l27 49 -21
54 c-24 60 -19 70 37 70 43 0 73 -13 128 -54 88 -68 167 -69 241 -4 46 41 61
72 80 165 17 84 52 163 88 203 13 14 45 69 72 123 32 67 69 122 112 170 82 92
106 134 132 232 24 91 43 122 111 183 47 42 100 132 115 196 7 27 6 28 -26 21
-31 -7 -31 -6 -20 17 11 21 37 57 119 167 14 19 20 32 14 27 -20 -12 -15 5 13
46 15 21 24 41 21 44 -3 4 -39 -15 -80 -40 -98 -61 -99 -61 -49 15 9 14 30 46
46 70 16 24 70 105 119 179 111 167 146 242 185 395 44 177 45 182 21 204 -18
17 -19 23 -8 64 16 64 8 77 -23 36z m-270 -1033 c-7 -8 -15 -12 -17 -11 -5 6
10 25 20 25 5 0 4 -6 -3 -14z m-188 -6 c0 -13 -28 -25 -38 -16 -3 4 0 11 8 16
20 13 30 12 30 0z m-3380 -829 c0 -14 -18 -23 -30 -16 -6 4 -8 11 -5 16 8 12
35 12 35 0z m220 -151 c0 -5 -4 -10 -9 -10 -6 0 -13 5 -16 10 -3 6 1 10 9 10
9 0 16 -4 16 -10z m50 -48 c0 -5 -10 -14 -22 -21 -13 -6 -15 -9 -5 -7 12 4 17
0 17 -14 0 -30 -19 -34 -31 -6 -9 19 -8 28 2 40 15 16 39 21 39 8z m-274 -47
c11 -10 13 -25 8 -50 -5 -28 -3 -35 10 -35 9 0 18 -12 22 -27 4 -16 13 -35 21
-44 7 -9 11 -23 8 -31 -4 -9 8 -29 31 -52 26 -26 35 -42 31 -57 -7 -26 12 -69
30 -69 7 0 13 -4 13 -10 0 -5 18 -10 39 -10 43 0 71 -8 71 -20 0 -12 -81 -1
-116 16 -34 17 -54 50 -54 91 0 15 -11 36 -26 50 -15 13 -27 36 -28 51 0 15
-9 33 -19 40 -10 8 -16 19 -14 25 3 7 -7 24 -20 38 -20 22 -23 31 -14 47 14
27 14 32 -4 32 -8 0 -15 7 -15 15 0 19 7 19 26 0z m309 -55 c-3 -5 -10 -10
-16 -10 -5 0 -9 5 -9 10 0 6 7 10 16 10 8 0 12 -4 9 -10z m15 -300 c7 -16 16
-30 20 -30 5 0 13 -13 19 -30 7 -23 16 -30 35 -30 17 0 24 -4 20 -13 -2 -7 4
-21 15 -31 11 -10 18 -23 15 -27 -9 -16 6 -9 28 11 22 20 22 20 43 0 12 -11
28 -20 36 -20 19 -1 49 -24 49 -39 0 -7 16 -29 35 -49 19 -20 35 -40 35 -44 0
-5 9 -8 20 -8 11 0 20 -4 20 -10 0 -5 11 -10 24 -10 14 0 28 -4 31 -10 3 -5
23 -10 44 -10 40 0 63 17 80 60 8 22 10 22 10 5 2 -55 -75 -98 -127 -72 -16 7
-38 12 -50 10 -12 -1 -22 2 -22 7 0 6 -6 10 -13 10 -8 0 -20 12 -27 26 -8 14
-26 32 -40 41 -15 8 -31 28 -37 44 -7 17 -19 29 -29 29 -10 0 -28 9 -40 21
-23 22 -44 19 -44 -7 0 -16 -2 -16 -24 -8 -9 3 -16 13 -16 21 0 10 -6 12 -22
7 -20 -6 -21 -5 -10 8 10 13 9 16 -7 21 -11 3 -27 21 -35 41 -8 19 -24 46 -36
58 -18 19 -22 20 -30 8 -7 -11 -10 -7 -10 16 0 53 19 55 40 4z m737 -46 c-3
-3 -12 -4 -19 -1 -8 3 -5 6 6 6 11 1 17 -2 13 -5z m-27 -54 c0 -5 -7 -10 -15
-10 -8 0 -15 5 -15 10 0 6 7 10 15 10 8 0 15 -4 15 -10z m-53 -72 c-8 -4 -13
-16 -10 -26 3 -13 -6 -22 -31 -35 -20 -9 -36 -12 -36 -7 0 6 5 10 11 10 17 0
41 29 34 41 -4 6 2 17 14 25 12 8 22 25 22 37 2 16 3 13 6 -7 3 -19 -1 -32
-10 -38z m-2624 35 c-7 -2 -19 -2 -25 0 -7 3 -2 5 12 5 14 0 19 -2 13 -5z
m-1133 -279 c0 -2 -14 -4 -31 -4 -16 0 -28 4 -25 9 5 8 56 3 56 -5z m-93 -10
c-3 -3 -12 -4 -19 -1 -8 3 -5 6 6 6 11 1 17 -2 13 -5z m846 -187 c-19 -28 -37
-41 -55 -43 -37 -4 -36 12 2 31 17 9 30 20 30 26 0 6 10 22 23 35 35 36 35 0
0 -49z m-1635 16 c-21 -2 -55 -2 -75 0 -21 2 -4 4 37 4 41 0 58 -2 38 -4z
m162 -1 c0 -14 -49 -56 -56 -49 -4 4 -1 13 5 21 11 13 8 16 -16 21 -50 12 -49
13 10 14 31 1 57 -3 57 -7z m1350 -17 c0 -8 -8 -15 -18 -15 -21 0 -117 -121
-144 -181 -9 -21 -22 -39 -28 -39 -5 0 -10 -5 -10 -11 0 -7 -10 -22 -22 -34
-26 -25 -58 -63 -58 -69 0 -11 -122 -166 -131 -166 -15 0 -10 30 6 36 24 10
17 31 -15 44 -24 10 -33 10 -45 0 -12 -10 -15 -9 -15 6 0 11 13 30 30 44 16
13 32 38 36 54 6 28 7 29 20 11 12 -15 14 -16 14 -3 0 9 7 19 16 22 12 5 14
10 5 20 -13 15 -5 27 15 19 9 -3 14 2 14 15 0 12 9 23 20 27 11 3 20 13 20 21
0 8 9 18 19 22 11 4 39 25 63 47 24 22 62 53 84 68 23 15 52 39 64 52 26 28
60 33 60 10z m-1420 -14 c0 -14 -14 -16 -75 -13 -30 2 -53 8 -49 13 7 12 124
12 124 0z m1265 -41 c-3 -5 -12 -10 -20 -10 -8 0 -17 5 -20 10 -4 6 5 10 20
10 15 0 24 -4 20 -10z m795 -16 c0 -3 -7 -12 -15 -20 -13 -14 -15 -13 -15 5 0
12 6 21 15 21 8 0 15 -3 15 -6z m-1286 -10 c21 -8 20 -24 -1 -24 -10 -1 -29
-14 -43 -30 -13 -17 -30 -30 -36 -30 -7 0 -19 -6 -26 -13 -26 -25 -159 -108
-169 -105 -11 4 115 138 130 138 6 0 11 5 11 10 0 6 9 10 19 10 11 0 23 5 26
10 4 6 10 8 13 6 4 -2 19 4 32 15 29 22 25 20 44 13z m306 -28 c-5 -15 -14
-25 -19 -22 -4 3 -17 -10 -27 -29 -20 -37 -29 -43 -37 -22 -4 7 -6 6 -6 -4 -1
-9 -8 -19 -16 -23 -9 -3 -12 -12 -8 -22 4 -12 3 -15 -5 -10 -7 4 -15 0 -19
-11 -14 -40 -152 -170 -186 -175 -36 -6 -65 13 -86 55 -21 42 -20 57 5 57 16
0 59 30 171 118 37 28 73 52 80 52 8 0 31 11 53 25 21 14 45 22 52 20 8 -3 22
1 33 9 25 18 28 15 15 -18z m397 -24 c-14 -20 -36 -59 -49 -87 -24 -51 -51
-85 -68 -85 -5 0 -7 -7 -4 -15 4 -8 1 -15 -5 -15 -6 0 -11 -7 -11 -15 0 -9 -9
-15 -22 -14 -19 1 -19 2 -5 6 11 3 16 11 13 19 -3 7 -1 16 5 20 6 3 14 16 20
27 5 12 15 31 21 41 7 11 28 45 47 75 41 68 74 106 79 91 2 -6 -7 -28 -21 -48z
m253 24 c0 -15 -24 -28 -34 -19 -7 7 13 33 25 33 5 0 9 -6 9 -14z m-92 -38
c-25 -21 -54 -70 -74 -126 -20 -59 -54 -100 -54 -66 0 31 83 186 105 195 30
12 41 11 23 -3z m570 -83 c15 -33 15 -32 -7 -38 -24 -6 -41 10 -41 40 0 32 33
30 48 -2z m-1738 -69 c0 -3 -4 -8 -10 -11 -5 -3 -10 -1 -10 4 0 6 5 11 10 11
6 0 10 -2 10 -4z m2074 -52 c17 -7 21 -50 7 -72 -7 -12 -12 -12 -30 -1 -23 15
-26 31 -11 60 12 21 12 21 34 13z m-2607 -10 c-3 -3 -12 -4 -19 -1 -8 3 -5 6
6 6 11 1 17 -2 13 -5z m1533 -93 c0 -6 -4 -13 -10 -16 -5 -3 -10 1 -10 9 0 9
5 16 10 16 6 0 10 -4 10 -9z m-220 -35 c0 -8 -9 -24 -20 -37 l-19 -24 11 38
c11 36 28 51 28 23z m780 -370 c0 -3 -4 -8 -10 -11 -5 -3 -10 -1 -10 4 0 6 5
11 10 11 6 0 10 -2 10 -4z"/>
<path d="M5080 8510 c-18 -38 -31 -72 -28 -75 3 -3 17 22 32 55 15 33 30 60
34 60 4 0 34 -54 67 -120 63 -126 121 -203 191 -251 33 -22 24 -10 -39 54 -71
71 -91 99 -146 207 -35 69 -66 128 -70 133 -4 4 -22 -24 -41 -63z"/>
<path d="M5041 8404 c0 -11 3 -14 6 -6 3 7 2 16 -1 19 -3 4 -6 -2 -5 -13z"/>
<path d="M5027 8351 c-4 -18 -7 -43 -6 -55 1 -11 5 -1 10 24 5 25 7 49 6 55
-2 5 -7 -5 -10 -24z"/>
<path d="M5577 7843 c-14 -13 -6 -33 12 -33 14 0 18 5 14 20 -5 21 -15 25 -26
13z"/>
<path d="M5605 7787 c-4 -10 -5 -21 -1 -24 10 -10 18 4 13 24 -4 17 -4 17 -12
0z"/>
<path d="M5873 7525 c-9 -10 -9 -15 3 -19 9 -3 22 -3 30 2 11 6 10 9 -4 18
-13 8 -20 8 -29 -1z"/>
<path d="M3958 7233 c34 -2 88 -2 120 0 31 2 3 3 -63 3 -66 0 -92 -1 -57 -3z"/>
<path d="M3853 7223 c9 -2 23 -2 30 0 6 3 -1 5 -18 5 -16 0 -22 -2 -12 -5z"/>
<path d="M4168 7223 c6 -2 18 -2 25 0 6 3 1 5 -13 5 -14 0 -19 -2 -12 -5z"/>
<path d="M4228 7213 c7 -3 16 -2 19 1 4 3 -2 6 -13 5 -11 0 -14 -3 -6 -6z"/>
<path d="M4838 7113 c6 -2 18 -2 25 0 6 3 1 5 -13 5 -14 0 -19 -2 -12 -5z"/>
<path d="M1508 6363 c7 -3 16 -2 19 1 4 3 -2 6 -13 5 -11 0 -14 -3 -6 -6z"/>
<path d="M4543 5425 c-13 -9 -41 -15 -70 -14 -26 1 -79 -6 -118 -16 -38 -9
-108 -23 -155 -31 -47 -8 -96 -16 -110 -19 -14 -3 -70 -9 -125 -15 -55 -6
-111 -15 -125 -20 -21 -7 -480 -26 -530 -22 -8 1 -49 6 -90 11 -41 6 -102 13
-135 16 -63 6 -230 42 -255 55 -8 4 -34 11 -58 15 -33 5 -41 4 -37 -7 9 -22
113 -58 220 -77 23 -4 46 -11 53 -15 16 -10 184 -28 250 -27 29 1 52 -3 52 -9
0 -5 7 -10 15 -10 8 0 15 5 15 10 0 6 9 10 20 10 25 0 26 -17 3 -24 -10 -2 -2
-2 18 1 21 3 40 0 43 -6 4 -6 19 -10 34 -10 24 2 24 2 5 6 -25 5 -32 23 -9 23
8 0 22 3 30 6 12 5 15 2 10 -10 -5 -13 9 -15 118 -15 67 0 148 7 178 14 30 7
91 16 134 20 44 4 104 13 134 21 31 8 74 17 96 20 23 2 55 9 71 14 30 8 142
27 200 33 17 2 37 6 45 10 8 3 42 14 75 24 39 11 60 23 60 33 0 21 -35 24 -62
5z"/>
</g>
</svg>
